HIERARCHY
ROOT Hips
{
	OFFSET 0.000000 0.000000 0.000000 
	CHANNELS 6 Xposition Yposition Zposition Zrotation Xrotation Yrotation
	JOINT Spine
	{
		OFFSET -0.000000 8.061080 0.000000 
		CHANNELS 3 Zrotation Xrotation Yrotation
		JOINT Spine1
		{
			OFFSET -0.000000 20.532677 0.000000 
			CHANNELS 3 Zrotation Xrotation Yrotation
			JOINT Neck
			{
				OFFSET -0.000000 22.498795 0.000000 
				CHANNELS 3 Zrotation Xrotation Yrotation
				JOINT Head
				{
					OFFSET -0.000000 15.237408 1.966117 
					CHANNELS 3 Zrotation Xrotation Yrotation
					End Site
					{
						OFFSET -0.000000 19.661171 0.000000 
					}
				}
			}
			JOINT LeftShoulder
			{
				OFFSET 3.894675 16.042269 -0.398189 
				CHANNELS 3 Zrotation Xrotation Yrotation
				JOINT LeftArm
				{
					OFFSET 19.709621 0.000000 0.000000 
					CHANNELS 3 Zrotation Xrotation Yrotation
					JOINT LeftForeArm
					{
						OFFSET 25.566900 0.000000 0.000000 
						CHANNELS 3 Zrotation Xrotation Yrotation
						JOINT LeftHand
						{
							OFFSET 25.401896 0.000000 0.000000 
							CHANNELS 3 Zrotation Xrotation Yrotation
							End Site
							{
								OFFSET 14.745877 0.000000 0.000000 
							}
						}
					}
				}
			}
			JOINT RightShoulder
			{
				OFFSET -3.930777 16.042269 -0.398189 
				CHANNELS 3 Zrotation Xrotation Yrotation
				JOINT RightArm
				{
					OFFSET -19.709621 0.000000 0.000000 
					CHANNELS 3 Zrotation Xrotation Yrotation
					JOINT RightForeArm
					{
						OFFSET -25.566900 0.000000 0.000000 
						CHANNELS 3 Zrotation Xrotation Yrotation
						JOINT RightHand
						{
							OFFSET -25.401896 0.000000 0.000000 
							CHANNELS 3 Zrotation Xrotation Yrotation
							End Site
							{
								OFFSET -14.745877 0.000000 0.000000 
							}
						}
					}
				}
			}
		}
	}
	JOINT LeftUpLeg
	{
		OFFSET 9.830585 0.000000 0.000000 
		CHANNELS 3 Zrotation Xrotation Yrotation
		JOINT LeftLeg
		{
			OFFSET -0.000000 -46.474842 0.000000 
			CHANNELS 3 Zrotation Xrotation Yrotation
			JOINT LeftFoot
			{
				OFFSET -0.000000 -30.290520 0.000000 
				CHANNELS 3 Zrotation Xrotation Yrotation
				JOINT LeftToeBase
				{
					OFFSET -0.000000 -6.389880 14.745877 
					CHANNELS 3 Zrotation Xrotation Yrotation
					End Site
					{
						OFFSET -0.000000 0.000000 3.932234 
					}
				}
			}
		}
	}
	JOINT RightUpLeg
	{
		OFFSET -9.830585 0.000000 0.000000 
		CHANNELS 3 Zrotation Xrotation Yrotation
		JOINT RightLeg
		{
			OFFSET -0.000000 -46.474842 0.000000 
			CHANNELS 3 Zrotation Xrotation Yrotation
			JOINT RightFoot
			{
				OFFSET -0.000000 -30.290520 0.000000 
				CHANNELS 3 Zrotation Xrotation Yrotation
				JOINT RightToeBase
				{
					OFFSET -0.000000 -6.389880 14.745877 
					CHANNELS 3 Zrotation Xrotation Yrotation
					End Site
					{
						OFFSET -0.000000 0.000000 3.932234 
					}
				}
			}
		}
	}
}
MOTION
Frames: 17
Frame Time: 0.010000
-12.142290 85.186752 13.744207 1.546618 4.108102 -14.501300 3.365283 -4.019670 1.172041 1.462471 -0.070265 0.350778 3.114621 9.523918 -0.052150 0.263908 10.437789 0.564666 3.345957 13.538606 2.558209 -67.392296 24.695774 -23.152691 -11.204509 2.936683 -13.705478 0.107177 1.594869 8.384377 -8.536012 8.825106 -9.379649 51.048592 54.171261 39.757191 6.473223 -10.009160 6.964507 -4.218397 -10.676135 7.690336 11.135618 -5.362953 9.952370 2.468523 20.448929 10.244149 -6.184888 -5.435647 -2.298833 0.000000 0.000000 0.000000 -6.119350 -10.621946 4.291692 12.477258 10.764425 -15.886835 -13.557941 -0.469503 -6.692707 0.000000 0.000000 0.000000 
-12.214094 85.222954 13.971618 1.645792 4.065681 -14.987910 3.200565 -3.848042 1.091528 1.809556 -0.380259 0.332674 3.030478 9.653490 0.045910 -0.049321 10.408175 0.719311 3.062295 13.834596 2.749382 -67.196815 24.924006 -23.600473 -11.320004 3.032968 -13.666434 0.198118 1.688454 8.781208 -8.663539 8.904558 -9.336068 50.637123 54.331474 40.081165 6.414433 -10.143912 6.914145 -4.081816 -10.795650 7.701293 11.010448 -5.311209 9.614094 2.609489 19.372486 10.414131 -6.381129 -4.884136 -2.434864 0.000000 0.000000 0.000000 -6.146844 -10.447018 4.502916 12.430899 10.591911 -15.701345 -13.572008 -0.470369 -6.528655 0.000000 0.000000 0.000000 
-12.271872 85.251823 14.216745 1.738061 4.050884 -15.467161 3.323189 -4.036584 1.108928 1.677590 -0.143850 0.331288 3.067283 9.551154 0.118089 -0.171657 10.415191 0.825862 3.279885 13.620999 2.620845 -67.384613 25.254454 -23.783604 -11.374402 3.035088 -13.639199 -0.056316 1.667488 8.297567 -8.581377 8.813888 -9.357046 50.569382 54.217552 40.109245 6.436015 -10.160029 6.914464 -3.958892 -10.803474 7.659749 10.900153 -5.251655 9.190503 2.702263 18.235817 10.650416 -6.549000 -4.330461 -2.540923 0.000000 0.000000 0.000000 -6.181012 -10.292277 4.658169 12.387795 10.443585 -15.485302 -13.580571 -0.499309 -6.361485 0.000000 0.000000 0.000000 
-12.372832 85.293442 14.376303 1.831156 4.044411 -15.971730 3.065341 -3.836657 1.089149 2.061690 -0.448522 0.335516 3.016348 9.603321 0.195230 -0.384934 10.373014 0.942044 3.191696 13.782991 2.683277 -67.339531 25.359728 -24.148912 -11.543755 3.183568 -13.664742 0.009162 1.797815 8.316181 -8.662003 8.826987 -9.347773 50.350998 54.286617 40.273304 6.416461 -10.252061 6.879026 -3.877251 -10.886804 7.659123 10.915346 -5.270833 8.854574 2.638391 17.131792 10.794509 -6.609670 -3.634401 -2.538293 0.000000 0.000000 0.000000 -6.139285 -10.221750 5.035856 12.323114 10.290096 -15.424210 -13.605042 -0.443358 -6.230794 0.000000 0.000000 0.000000 
-12.364471 85.312546 14.685838 1.904900 4.028595 -16.455854 3.255442 -4.035386 1.140737 1.984056 -0.307986 0.345879 2.970401 9.502464 0.278966 -0.503998 10.458938 1.042140 3.174261 13.615755 2.401173 -67.436188 25.708868 -24.067732 -11.501203 3.143312 -13.758459 0.028393 1.754474 8.297153 -8.695726 8.828526 -9.455886 50.403370 54.020123 40.158867 6.612939 -10.139018 6.953848 -3.945888 -10.792744 7.610097 10.759572 -5.082439 8.261577 2.720938 15.781150 11.201705 -6.732017 -3.051145 -2.633525 0.000000 0.000000 0.000000 -6.251511 -10.028599 5.064677 12.339584 10.149528 -15.094585 -13.608281 -0.493623 -6.067474 0.000000 0.000000 0.000000 
-12.393567 85.316879 14.948548 1.943385 3.966061 -16.965233 3.453290 -4.009583 1.042316 1.733622 -0.288636 0.310098 3.183188 9.530381 0.340720 -0.838005 10.365372 1.225023 3.316035 13.666615 2.637856 -67.392204 25.911190 -24.439356 -11.678834 3.258206 -13.749207 0.094543 1.853632 8.338054 -8.505555 8.766287 -9.305047 50.052994 54.118404 40.407051 6.507003 -10.237366 6.877565 -3.703257 -10.866392 7.672269 10.726243 -4.885820 7.878054 2.736669 14.512313 11.376765 -6.804142 -2.478703 -2.668597 0.000000 0.000000 0.000000 -6.294699 -9.823495 5.361531 12.379147 9.995541 -14.948487 -13.638896 -0.565296 -5.959914 0.000000 0.000000 0.000000 
-12.410588 85.348534 15.174907 2.054777 3.976656 -17.500717 3.264523 -3.918999 1.048565 2.108586 -0.504024 0.319822 3.017868 9.380337 0.605041 -0.841688 10.476265 1.459725 3.147025 13.649539 2.610590 -67.491554 26.044226 -24.498487 -11.724114 3.336582 -13.781618 0.093399 1.923009 8.195592 -8.656301 8.761245 -9.389732 49.686867 54.212643 40.652435 6.571652 -10.255251 6.919136 -3.479724 -10.876034 7.684184 10.668437 -4.807761 7.450563 2.672870 13.217654 11.625815 -6.783687 -1.713096 -2.620683 0.000000 0.000000 0.000000 -6.357265 -9.766678 5.564576 12.332410 9.901814 -14.762475 -13.633019 -0.558115 -5.790118 0.000000 0.000000 0.000000 
-12.432553 85.365776 15.413986 2.114211 3.967632 -18.003313 3.414764 -4.042732 1.013183 1.904605 -0.356832 0.301951 3.203079 9.476794 0.525949 -1.217724 10.242286 1.500396 2.970228 14.109452 2.610513 -66.879318 25.980124 -25.257931 -11.875059 3.395689 -13.923262 0.170839 1.954778 8.471882 -8.542711 8.700496 -9.219166 49.826309 53.998287 40.494591 6.576288 -10.195026 6.907668 -3.444175 -10.814306 7.720725 10.674846 -4.819920 6.970043 2.634274 12.247948 12.097891 -6.828026 -1.062518 -2.807735 0.000000 0.000000 0.000000 -6.403844 -9.661947 5.956776 12.379539 9.766921 -14.731735 -13.659818 -0.575007 -5.691682 0.000000 0.000000 0.000000 
-12.435139 85.371330 15.660189 2.132115 3.987822 -18.550425 3.335354 -4.029230 0.983290 2.233625 -0.459455 0.296090 3.119327 9.471821 0.640451 -1.443793 10.190081 1.648570 2.848196 14.136568 2.631523 -66.970161 26.136553 -25.422554 -11.881783 3.467204 -13.911932 0.446520 2.047368 8.530849 -8.633834 8.677238 -9.149202 49.281239 54.214325 40.854656 6.560104 -10.332935 6.906891 -3.297909 -10.942159 7.753307 10.724123 -4.522466 6.681201 2.525812 10.607175 11.514668 -6.690537 -0.406375 -2.038887 0.000000 0.000000 0.000000 -6.397787 -9.604971 6.151905 12.362803 9.734776 -14.519803 -13.660434 -0.615498 -5.551114 0.000000 0.000000 0.000000 
-12.445138 85.400063 15.872892 2.207570 4.048544 -19.083355 3.465873 -4.157242 1.044051 2.038696 -0.386324 0.311218 3.250741 9.447921 0.686301 -1.541675 10.017515 1.742566 3.344734 13.394662 2.261137 -67.561554 26.602543 -24.767891 -11.881612 3.378822 -13.945080 0.581249 1.965055 8.448205 -8.531574 8.633622 -9.170043 49.372799 54.042835 40.841679 6.577137 -10.235740 6.830744 -3.192854 -10.835871 7.789817 10.687363 -4.458596 6.500244 2.676420 9.197040 11.946017 -6.750609 0.649565 -2.424536 0.000000 0.000000 0.000000 -6.408810 -9.630332 6.435723 12.327288 9.685184 -14.420094 -13.657198 -0.582916 -5.409225 0.000000 0.000000 0.000000 
-12.390896 85.397614 16.025700 2.322760 4.323777 -19.448769 3.380229 -4.211633 0.837861 2.333181 -0.677362 0.249922 3.123748 9.391713 0.844868 -1.685607 9.947671 1.907204 3.046185 13.545769 2.340398 -67.360641 26.731823 -25.049204 -11.921172 3.401247 -13.991537 0.419897 1.965820 8.457483 -8.647434 8.600150 -9.071707 48.825184 54.247860 41.270134 6.564367 -10.343721 6.808939 -3.069798 -10.933113 7.778096 10.713144 -4.779735 6.096064 2.676785 8.061985 12.065015 -6.696916 1.405880 -2.399550 0.000000 0.000000 0.000000 -6.463248 -9.924671 6.448342 12.331895 9.750072 -14.285564 -13.652530 -0.634071 -5.269641 0.000000 0.000000 0.000000 
-12.407610 85.410568 16.355156 2.308164 4.057470 -20.213755 3.115973 -3.906988 0.963703 2.823756 -0.858456 0.305433 3.065591 9.434043 0.923829 -1.977782 9.878506 2.038622 2.999924 13.663922 2.357960 -67.559425 26.809607 -25.176035 -11.988424 3.506213 -14.000642 0.454760 2.064271 8.482777 -8.787044 8.693164 -9.113772 48.322754 54.353615 41.656166 6.607769 -10.372825 6.807150 -2.952525 -10.956893 7.782758 10.684804 -4.307658 6.086097 2.754924 6.961047 12.329455 -6.719414 2.156861 -2.601995 0.000000 0.000000 0.000000 -6.480877 -9.589370 6.936440 12.301455 9.720164 -14.126728 -13.647238 -0.698026 -5.138896 0.000000 0.000000 0.000000 
-12.355928 85.412712 16.578823 2.356771 4.073761 -20.869080 3.236182 -3.858124 0.986446 2.693445 -0.965289 0.313577 3.240110 9.418736 1.033805 -2.246438 9.728700 2.243902 3.089242 13.390277 2.120068 -67.726196 27.063936 -24.821655 -11.876925 3.423263 -14.093184 0.663460 1.999621 8.288192 -8.689323 8.753927 -9.016242 48.062996 54.205288 41.922100 6.650715 -10.321265 6.728066 -2.799715 -10.892557 7.755714 10.648493 -4.237540 6.006133 2.888781 5.899824 12.337401 -6.730166 2.880503 -2.538885 0.000000 0.000000 0.000000 -6.513733 -9.637208 7.306736 12.296140 9.756675 -14.035548 -13.635612 -0.725014 -4.996626 0.000000 0.000000 0.000000 
-12.329304 85.409088 16.835367 2.384628 4.077500 -21.376600 3.222546 -3.941636 0.938973 2.758623 -0.799211 0.293795 3.332587 9.288714 1.060981 -2.441505 9.524149 2.325302 3.217439 13.436665 2.170706 -67.722786 27.133808 -25.199316 -11.990313 3.466549 -14.072777 0.572345 2.024653 8.341327 -8.657998 8.562358 -8.988541 47.852497 54.255032 42.045467 6.657049 -10.328652 6.751946 -2.756324 -10.897507 7.702506 10.608833 -4.183802 6.000024 3.103777 4.897020 12.287445 -6.786889 3.625046 -2.642479 0.000000 0.000000 0.000000 -6.554181 -9.607611 7.409443 12.290640 9.832056 -13.784109 -13.645070 -0.809769 -4.909258 0.000000 0.000000 0.000000 
-12.274590 85.403618 17.091274 2.435942 4.064178 -21.973223 3.137485 -3.896804 0.909475 2.958002 -0.888454 0.288974 3.267335 9.326658 1.155440 -2.556192 9.298072 2.429110 3.143684 13.323188 2.020499 -67.762810 27.406942 -25.083721 -11.924707 3.316709 -14.131930 0.649465 1.881580 8.238633 -8.701819 8.591460 -8.931265 47.383549 54.353745 42.457420 6.596336 -10.404828 6.714885 -2.584106 -10.956366 7.696013 10.631929 -4.068490 5.837441 3.010095 3.904551 12.361714 -6.636474 4.282983 -2.584714 0.000000 0.000000 0.000000 -6.636004 -9.615212 7.571165 12.306573 9.940935 -13.514415 -13.656290 -0.890242 -4.830649 0.000000 0.000000 0.000000 
-12.167077 85.374977 17.255001 2.519190 4.359723 -22.367722 3.379464 -4.099390 0.801609 2.726421 -0.937507 0.247674 3.346787 9.300233 1.208068 -2.613691 8.989365 2.504986 3.281944 13.370831 1.961633 -67.668510 27.394819 -25.373346 -12.009015 3.376034 -14.129404 0.654718 1.931206 8.262568 -8.635774 8.503986 -8.907780 47.466377 54.113869 42.442917 6.695066 -10.275826 6.691043 -2.531140 -10.827933 7.672633 10.698984 -4.470200 5.635567 3.033893 3.198849 12.105702 -6.581570 4.738004 -2.349618 0.000000 0.000000 0.000000 -6.688104 -9.987616 7.430774 12.345226 10.155750 -13.198380 -13.674337 -0.978177 -4.772830 0.000000 0.000000 0.000000 
-12.133919 85.378853 17.606812 2.454057 4.051564 -23.192616 3.312453 -3.885013 0.914288 2.842270 -0.858235 0.287127 3.378056 9.311558 1.296598 -2.740602 8.737821 2.623741 3.257011 13.320318 1.902194 -67.688454 27.467951 -25.303856 -12.047083 3.367809 -14.211740 0.675442 1.910107 8.135151 -8.608891 8.542303 -8.869770 46.989738 54.135544 42.884720 6.688450 -10.308441 6.625068 -2.361940 -10.845236 7.675993 10.684226 -3.892758 5.726563 3.016629 2.289593 11.962795 -6.488801 5.276245 -2.141445 0.000000 0.000000 0.000000 -6.730448 -9.654289 7.806653 12.319953 10.227563 -12.872361 -13.678795 -1.024848 -4.696976 0.000000 0.000000 0.000000 
